<?xml version="1.0" standalone="no"?>
<!DOCTYPE svg PUBLIC "-//W3C//DTD SVG 20010904//EN"
 "http://www.w3.org/TR/2001/REC-SVG-20010904/DTD/svg10.dtd">
<svg version="1.0" xmlns="http://www.w3.org/2000/svg"
 width="28.000000pt" height="20.000000pt" viewBox="0 0 28.000000 20.000000"
 preserveAspectRatio="xMidYMid meet">

<g transform="translate(0.000000,20.000000) scale(0.100000,-0.100000)"
fill="#000000" stroke="none">
<path d="M17 182 c-23 -25 -21 -55 3 -77 20 -18 20 -17 20 11 0 45 16 54 95
54 66 0 73 -2 100 -30 36 -37 45 -38 45 -2 0 51 -24 62 -142 62 -89 0 -107 -3
-121 -18z"/>
<path d="M240 87 c0 -40 -29 -57 -100 -57 -60 0 -66 2 -102 37 l-38 37 0 -35
c0 -59 20 -69 142 -69 89 0 107 3 121 18 23 26 22 69 -3 82 -17 9 -20 8 -20
-13z"/>
</g>
</svg>
