<svg width="187" height="24" viewBox="0 0 187 24" fill="none" xmlns="http://www.w3.org/2000/svg">
<path d="M177.952 0.993891L177.874 0.839891H172.387L181.041 23.1659V23.3219H186.607L177.952 0.993891ZM163.187 0.917891L156.461 23.3219H161.564L166.82 6.75189H173.082L170.84 0.837891L163.187 0.917891ZM4.80227 11.5739L4.72419 11.4959V7.21789L7.35452 4.41789H23.3543L31.083 12.1179V4.57589L27.2197 0.917891L3.33093 0.837891L-0.224121 4.57389V9.47389L4.80022 14.7639V11.5739H4.80227Z" fill="#222222"/>
<path d="M26.3626 17.0199H26.2846V17.1759L23.5022 19.6639H7.50236L-0.000244141 11.4179V19.5879L3.86716 23.3219H27.4436L31.3849 19.5099V14.1419L26.3626 9.31793V17.0199ZM84.8012 11.5739L84.7231 11.4959V7.21793L87.3514 4.41793H103.275L111.004 12.1179V4.57593L107.217 0.917929L83.3319 0.837929L79.6988 4.57393V9.47393L84.8012 14.7639V11.5739Z" fill="#222222"/>
<path d="M105.907 17.0199H105.831V17.1759L103.049 19.6639H87.047L79.4725 11.4179V19.5879L83.3358 23.3219H106.99L110.854 19.5099V14.1419L105.909 9.31788V17.0199H105.907ZM58.9888 0.837883L55.9721 16.3979L57.2092 23.2439L59.297 23.3219L62.3116 6.75188H66.0989V23.4759H71.1232V4.65188L67.6483 0.837883H58.9908H58.9888ZM42.5225 0.917883L39.1216 4.80588V23.3979H44.224V6.82988H48.0113L50.7937 23.4759H55.8961L51.7225 0.917883H42.5225ZM140.769 0.837883L145.948 4.88388V17.0979L142.239 19.6639H124.924V4.57388H143.089L138.373 0.837883H119.667V23.3179H147.341L151.05 19.5859V4.57388L146.336 0.837883H140.769Z" fill="#222222"/>
</svg>
